<?xml version="1.0"?>
<svg xmlns="http://www.w3.org/2000/svg" xmlns:xlink="http://www.w3.org/1999/xlink" xmlns:svgjs="http://svgjs.com/svgjs" version="1.1" width="512" height="512" x="0" y="0" viewBox="0 0 64 64" style="enable-background:new 0 0 512 512" xml:space="preserve" class=""><g><g xmlns="http://www.w3.org/2000/svg"><path d="m56 28h-9.101c-.465-2.279-2.484-4-4.899-4h-7.213c-.221-.561-.601-1.055-1.13-1.372l-8.771-5.262c-.398-.24-.855-.366-1.32-.366-1.415 0-2.566 1.151-2.566 2.566v1.434h-14v8h10v13.586l-7-7-9.414 9.414 7 7-6.586 6.586v.414c0 2.206 1.794 4 4 4h.414l13-13h2.687c.465 2.279 2.484 4 4.899 4s4.434-1.721 4.899-4h18.202c.465 2.279 2.484 4 4.899 4s4.434-1.721 4.899-4h1.101c1.654 0 3-1.346 3-3v-12c0-3.86-3.141-7-7-7zm-47-5h14v-3.434c0-.415.502-.701.857-.486l8.771 5.262c.229.138.372.39.372.658s-.143.52-.372.657l-8.771 5.262c-.356.214-.857-.07-.857-.485v-3.434h-14zm-.414 19-1.586 1.586-1.086-1.086 1.586-1.586zm-5.172 3 1.086-1.086 2.5 2.5 4.414-4.414-2.5-2.5 1.086-1.086 5.586 5.586-6.586 6.586zm1.208 15.964c-.801-.153-1.433-.786-1.586-1.585l13.964-13.965v3.172zm21.378-8.964c-1.654 0-3-1.346-3-3s1.346-3 3-3 3 1.346 3 3-1.346 3-3 3zm0-8c-2.414 0-4.434 1.721-4.899 4h-2.101v-19h2v1.434c0 1.415 1.151 2.566 2.566 2.566.465 0 .922-.126 1.32-.366l8.771-5.262c.529-.317.909-.811 1.13-1.372h7.213c1.654 0 3 1.346 3 3v19h-14.101c-.465-2.279-2.485-4-4.899-4zm28 8c-1.654 0-3-1.346-3-3s1.346-3 3-3 3 1.346 3 3-1.346 3-3 3zm7-5c0 .551-.448 1-1 1h-1.101c-.465-2.279-2.484-4-4.899-4s-4.434 1.721-4.899 4h-2.101v-18h9c2.757 0 5 2.243 5 5z" fill="#000000" data-original="#000000" style="" class=""/><path d="m56 32h-7v8h10v-5c0-1.654-1.346-3-3-3zm1 6h-6v-4h5c.552 0 1 .449 1 1z" fill="#000000" data-original="#000000" style="" class=""/><path d="m2.343 11.372 8.771 5.262c.398.24.855.366 1.32.366 1.415 0 2.566-1.151 2.566-2.566v-1.434h14v-8h-14v-1.434c0-1.415-1.151-2.566-2.566-2.566-.465 0-.922.126-1.32.366l-8.771 5.262c-.828.497-1.343 1.406-1.343 2.372s.515 1.875 1.343 2.372zm1.029-3.029 8.771-5.262c.087-.053.188-.081.291-.081.312 0 .566.254.566.566v3.434h14v4h-14v3.434c0 .415-.503.699-.857.486l-8.771-5.263c-.229-.137-.372-.389-.372-.657s.143-.52.372-.657z" fill="#000000" data-original="#000000" style="" class=""/><path d="m41 38h2v-8c0-1.103-.897-2-2-2h-2v2h2z" fill="#000000" data-original="#000000" style="" class=""/><path d="m41 40h2v2h-2z" fill="#000000" data-original="#000000" style="" class=""/></g></g></svg>
